<?xml version="1.0" encoding="UTF-8"?>
<!DOCTYPE svg PUBLIC "-//W3C//DTD SVG 1.1//EN" "http://www.w3.org/Graphics/SVG/1.1/DTD/svg11.dtd">
<!-- Creator: CorelDRAW -->
<svg xmlns="http://www.w3.org/2000/svg" xml:space="preserve" width="0.808161in" height="0.369232in" version="1.1" style="shape-rendering:geometricPrecision; text-rendering:geometricPrecision; image-rendering:optimizeQuality; fill-rule:evenodd; clip-rule:evenodd"
viewBox="0 0 59.59 27.23"
 xmlns:xlink="http://www.w3.org/1999/xlink"
 xmlns:xodm="http://www.corel.com/coreldraw/odm/2003">
 <defs>
  <style type="text/css">
   <![CDATA[
    .fil0 {fill:#3A3A3A}
   ]]>
  </style>
 </defs>
 <g id="Layer_x0020_1">
  <metadata id="CorelCorpID_0Corel-Layer"/>
  <path class="fil0" d="M23.54 3.91c1.32,0.44 3.68,-0.64 5.17,-0.88 -2.12,1.66 -11.24,2.18 -13.48,2.12 -2.9,-0.08 -10.94,0.26 -13.53,1.38 -2.4,1.03 -2.16,3.57 0.15,4.12 1.35,0.32 7.55,-0.2 12.45,0.4 0.95,0.12 1.99,0.17 3.04,0.16 1.29,-0.01 2.47,-0.24 3.35,0.32 -1.67,0.93 -2.19,2.96 -1.42,4.27 0.43,0.37 0.31,0.39 1.33,0.65 0.01,1.72 -0.16,4.61 2.91,5.38 -0.18,1.84 0.16,3.18 1.56,4.14 5.4,3.7 16.96,-1.99 23,-1.35 2.49,0.27 2.02,0.11 4.54,-0.46 1.61,-0.36 3.16,-0.1 4.57,-0.46l1.62 -6.08c0.55,-2.16 1.07,-4.54 0.62,-7.03 -0.97,-5.38 -3.9,-1.38 -12.57,-3.34 -4.46,-1.01 -7.29,-4.1 -10.43,-5.99 -2.34,-1.4 -3.2,-1.5 -6.82,-0.95 -2.94,0.44 -6.68,0.76 -6.06,3.6z"/>
 </g>
</svg>
