<?xml version="1.0" encoding="UTF-8"?>
<!DOCTYPE svg PUBLIC "-//W3C//DTD SVG 1.1//EN" "http://www.w3.org/Graphics/SVG/1.1/DTD/svg11.dtd">
<!-- Creator: CorelDRAW -->
<svg xmlns="http://www.w3.org/2000/svg" xml:space="preserve" width="0.705366in" height="0.332339in" version="1.1" style="shape-rendering:geometricPrecision; text-rendering:geometricPrecision; image-rendering:optimizeQuality; fill-rule:evenodd; clip-rule:evenodd"
viewBox="0 0 45.68 21.52"
 xmlns:xlink="http://www.w3.org/1999/xlink"
 xmlns:xodm="http://www.corel.com/coreldraw/odm/2003">
 <defs>
  <style type="text/css">
   <![CDATA[
    .fil0 {fill:#3A3A3A}
   ]]>
  </style>
 </defs>
 <g id="Layer_x0020_1">
  <metadata id="CorelCorpID_0Corel-Layer"/>
  <path class="fil0" d="M17.83 14.8c-2.08,0.56 -7.89,1.11 -10.13,1.43 -2.26,0.32 -6.35,1.57 -7.6,-0.32 -0.91,-2.68 4.85,-3.08 7.77,-3.7 1.92,-0.41 7.67,-1.38 8.93,-2.11 0.29,-2.02 -2.53,-2.57 -5.03,-3.32 -2.3,-0.7 -4.5,-1.38 -6.79,-2.17 -1.86,-0.64 -5.51,-1.2 -4.7,-3.5 0.79,-2.25 4.71,-0.49 6.73,0.04 2.43,0.64 4.69,1.19 7.08,1.97 4.75,1.53 4.85,1.67 9.54,0.45 2.65,-0.69 3.12,-2.61 9.67,0.59 2.86,1.39 3.89,0.75 6.57,0.26 4.57,-0.84 6.62,-1.75 5.52,7.88 -0.78,6.85 -0.98,4.94 -6.56,5.54 -2.08,0.22 -3.72,1.77 -8.51,3.03 -7.89,2.08 -10.34,-1.24 -9.49,-2.93 -2.92,-0.31 -2.99,-1.66 -3,-3.13z"/>
 </g>
</svg>
