<?xml version="1.0" encoding="UTF-8"?>
<!DOCTYPE svg PUBLIC "-//W3C//DTD SVG 1.1//EN" "http://www.w3.org/Graphics/SVG/1.1/DTD/svg11.dtd">
<!-- Creator: CorelDRAW -->
<svg xmlns="http://www.w3.org/2000/svg" xml:space="preserve" width="1.24706in" height="0.81061in" version="1.1" style="shape-rendering:geometricPrecision; text-rendering:geometricPrecision; image-rendering:optimizeQuality; fill-rule:evenodd; clip-rule:evenodd"
viewBox="0 0 122.72 79.77"
 xmlns:xlink="http://www.w3.org/1999/xlink"
 xmlns:xodm="http://www.corel.com/coreldraw/odm/2003">
 <defs>
  <style type="text/css">
   <![CDATA[
    .fil1 {fill:#040404}
    .fil0 {fill:#3A3A3A}
   ]]>
  </style>
 </defs>
 <g id="Layer_x0020_1">
  <metadata id="CorelCorpID_0Corel-Layer"/>
  <g id="_1810945760">
   <path class="fil0" d="M107.74 29.41c-3.38,-2.87 -7.23,-2.2 -8.96,1.96 -3.2,-1.39 -6.65,0.01 -6.88,3.93 -1.96,0.33 -3.21,-0.29 -4.84,2.19 -1.68,2.55 -0.78,3.77 -0.52,5.68 0.8,5.73 0.44,5.57 2.1,10.95 1.57,5.09 3.81,9.22 10.58,8.71 5,-0.37 -0.02,-2.16 8.85,1.26l-1.54 0.16c-4.56,-0.4 -1.14,-1.72 -7.02,0.23 -6.73,2.23 -6.44,-2.31 -7.11,9.69 -0.25,4.46 3.28,2.99 9.3,4.09 4.1,0.75 8.7,2.83 11.61,0.28 1.99,-1.74 1.11,-3.92 1.04,-5.65 -0.09,-2.28 -0.98,-9.52 0.1,-11.39 1.04,-1.81 3.39,-4.76 4.69,-6.74 4.3,-6.54 4.58,-8.78 1.77,-17.42 -1.01,-3.09 -1.15,-3.24 -4.41,-3.75 -1.41,-4.66 -0.91,-10.64 -1.32,-15.98 -0.18,-2.35 -2.02,-14.17 -3.31,-15.91 -2.62,-3.54 -5.79,-1.1 -5.19,3.05l1.02 16.31c0.14,2.4 0.98,5.91 0.07,8.34zm-0 0.15c-2.67,5.88 3.33,15.56 0.96,17.7 -4.17,3.77 -6.28,-10.63 -9.11,-14.42 -0.02,1.8 2.53,8.22 3.12,9.83 1.83,5.01 3.29,7.41 -0.47,8.95 -2.83,-1.19 -7.92,-12.04 -9.77,-14.6 3.46,9.06 8.28,13.33 5.56,14.73 -1.97,1.01 -7.43,-5.02 -9.79,-6.96 1.39,2.41 5.88,7.01 8.7,7.87 1.77,0.54 2.24,-0.43 3.26,-0.98 1.32,1.07 2.46,1.26 3.54,0.73 1.83,-0.88 1.63,-2.32 1.75,-3.61 8.23,1.3 3.39,-4.99 5.02,-7.3l3.74 0.9 -0.37 2.51c0.23,-0.23 0.35,-0.36 0.59,-0.64l3.28 -3.61c-1.36,-0.06 -3.12,1.14 -6.3,-0.48 -2.46,-1.26 -4.2,-3.28 -3.19,-5.46 1.07,-0.47 2.08,-0.33 3.12,-0.38 1.16,-0.06 2.18,-0.34 3.11,-0.34 -1.59,-0.45 -3.09,-0.02 -4.69,-0.44 -2.34,-0.61 -1.66,-2.77 -2.05,-4.01z"/>
   <path class="fil1" d="M16.19 45.9c-3.05,-3.28 -2.08,-2.91 -6.39,-2.17 -2.51,-1.21 -7.38,-4.4 -9.8,-3.56 0.98,1.51 1.11,0.95 2.68,2.42 0.41,3.78 0.33,3.83 3.37,6.01 3.18,2.27 0.31,3.14 5.7,3.98 2.74,0.44 1.49,2.07 6.77,2.81 6.13,0.85 2.11,0.26 6.77,-0.86 4.74,4.12 9.09,12.77 18.28,17.54 4.5,2.35 4,3.28 7.85,-0.25 2.44,0.54 5.28,1.11 4.43,-2.47 4.66,-2.11 2.49,-2.37 3.13,-5.06 0.12,-0.5 3.82,-6.39 -2.08,-9.93 0.76,-3.57 0.76,-5.78 -2.18,-8.05l-8.62 -4.61 2.97 -2.84c2.37,2.45 1.93,3.51 5.32,1.71 1.62,-0.86 4.11,-2.2 5.79,-2.28 2.24,2.82 3.3,4.85 5.53,7.67 2.18,-0.11 4.01,-0.64 5.08,-2.58l-3.95 0.85c-3.32,-2.44 -17.76,-24.17 -18.73,-28.31 2.9,-3.43 15.1,-6.69 15.9,-10.21 -2.12,-0.33 -1.38,0.06 -3.48,1.32 -1.08,0.66 -2.38,1.16 -3.52,1.75 -2.44,1.23 -4.62,2.6 -7.19,3.89 -4.2,2.11 -8.36,7.58 -14.11,8.07 -5.16,0.43 -10.79,-5.11 -17.07,-1.37 -2.16,1.28 -3.86,4.65 -6.39,2.94 -1.87,-1.26 -3.27,-4.38 -5.81,-5.08 0.7,3.04 4.57,4.08 5.45,7.14 1.14,4 -2.75,8.38 2.58,10.34 8.21,-1.1 0.45,-7.2 12.04,2.89 6.54,5.69 9.34,2.87 16.65,4.21 3.5,0.64 5.03,2.54 7.95,4.03 3.4,1.74 5.07,1.52 5.26,6.11 0.08,2.19 -1.51,4.57 -1.28,5.26 0.71,2.17 2.09,-0.42 2.73,-0.7 1.02,1.34 1.51,3.43 0.8,4.97 -2.9,-2.08 -2.28,-4.08 -2.91,-0.59 -0.47,2.63 2.46,1.4 1.94,5.31 -4.09,2.97 -6.28,-5.43 -11.42,-6.25 0.13,0.69 10.88,8.81 7.93,10.59l-3.54 -0.28c-0.12,0.12 -0.22,0.17 -0.32,0.38 -0.83,2 -2.68,1.84 -3.6,1.9 -1.24,-1.11 -0.44,-0.08 -1.21,-2.26 -2.89,3.98 -16.62,-13.66 -17.75,-14.76 -0.53,-0.5 -1.64,-1.25 -2.1,-1.73l-4.01 -6.12c-1.11,-2.11 -3.31,-2.09 -5.42,-1.78zm28.85 23.78c-0.05,-0.08 -0.19,0.04 -0.21,0.12 -0.01,0.02 -0.08,0.05 -0.08,0.05 0,0 0.89,0.81 0.3,-0.17zm3.1 -2.22l0.76 3.08c1.91,-1.62 1.03,-2.38 -0.76,-3.08zm-0.15 2.93c-0.05,0.03 0.15,0.12 0.14,0.21 -0.01,0.02 0.07,0.08 0.07,0.08 -0.02,-0.01 0.8,-0.91 -0.21,-0.29zm0.26 -3.69c-0.43,-0.72 -2.06,0.3 -0.75,0.15 0.02,0.01 1.37,0.83 0.75,-0.15zm-2.58 -7.92l-1.04 -2.33c-1.34,2.99 -1.38,0.85 -2,3.42 -0.66,2.65 0.59,0.45 -2.14,2.38l0.36 3.9c1.05,-1.22 -0.01,-0.64 1.04,-2.41 2.62,-0.32 2.61,1.46 5.18,2.6 -0.92,-2.15 -4.7,-3.52 -3.49,-6.36 0.94,-2.21 -0.2,-0.6 2.09,-1.21zm-4.22 10.77l1.93 -1.31 -1.75 -1.85 -0.18 3.16zm1.8 -0.29c0.06,0.06 0.24,-0.23 0.22,-0.14 -0.01,0.04 0.1,-0.04 0.08,-0.05 -0.01,0.02 -0.89,-0.81 -0.3,0.19zm11.44 -8.51c-0.03,-0.05 -0.18,0.07 -0.2,0.15 -0.01,0.02 -0.1,0.04 -0.1,0.04 0.03,-0.02 0.91,0.81 0.3,-0.19zm-0.45 -0.72c-0.03,-0.07 -0.19,0.04 -0.21,0.12 -0.01,0.04 -0.09,0.07 -0.09,0.07 0.03,-0.02 0.92,0.79 0.3,-0.19zm-2.81 -5.15c-0.36,2 -0.47,0.72 0.35,2.78 -1.79,-1.5 -2.55,-2.45 -4.95,-3.05 0.47,1.23 5.2,4.43 6.74,5.15l-2.14 -4.88zm-5.38 0.07c-0.05,0.03 0.15,0.12 0.13,0.21 -0.01,0.04 0.05,0.08 0.05,0.08 0,0 0.81,-0.88 -0.19,-0.29zm-0.73 0.44c-0.08,0.05 0.15,0.15 0.14,0.21 -0.01,0.04 0.05,0.1 0.05,0.1 -0.02,-0.03 0.79,-0.91 -0.18,-0.31zm5.54 -5.47c-3.7,4.07 0.73,-2.39 -2.62,1.59 1.45,1.86 1.71,1.24 2.7,3.3 1.62,-4.81 -0.82,1.03 -0.08,-4.89zm1.37 2.76c0.08,-0.05 -0.09,-0.29 -0.11,-0.2 -0.01,0.02 -0.07,-0.1 -0.07,-0.1 0.02,0.03 -0.8,0.91 0.18,0.31zm-32.82 1.39c0.47,-1.88 0.48,-1.79 2.09,-3.03l2.34 2.4c-1.82,0.84 -2.16,1.3 -4.43,0.63zm-7.07 -2.99c-2.47,-0.31 -2.55,0.03 -4.02,-1.84l2.51 -4.51 3.81 0.98c0.1,2.28 -0.61,4.18 -2.3,5.37zm5.05 2.44l-3.22 -1.21c0.85,-3.37 3.88,-8 6.84,-3.17 -0.8,0.95 -3.15,3.98 -3.61,4.38zm-13.48 -11.17c2.24,1.08 3.64,0.9 4.87,3.67l-1.79 1.3c-2.88,-1.11 -2.39,-2.09 -3.08,-4.97zm10.8 -8.93c-5.13,-3.47 0.81,-11.28 5.48,-13.03 3.18,-1.21 5.52,-1.15 8.62,0.2 13.02,5.64 5.1,-7.22 18.86,17.26 -2.44,5.25 -4.63,1.85 -7.63,1.77 -7.03,-0.19 -7.19,2.51 -16.56,-6.69 -1.18,-1.16 -2.67,-1.78 -3.08,-3.15 -0.59,-2.05 0.98,-2.64 -1.14,-4.11 -1.58,1.29 1.71,5.21 -4.54,7.75zm25.64 -12.3c1.49,-1.38 4.5,-2.85 6.31,-3.29 1.94,3.1 3.81,6.66 5.81,9.51 0.84,1.14 5.87,8.76 6.07,9.37 -1.22,1.24 -5.07,2.65 -6.83,3.23 -3.85,-6.1 -8.91,-11.92 -11.36,-18.82z"/>
  </g>
 </g>
</svg>
