<?xml version="1.0" encoding="UTF-8"?>
<!DOCTYPE svg PUBLIC "-//W3C//DTD SVG 1.1//EN" "http://www.w3.org/Graphics/SVG/1.1/DTD/svg11.dtd">
<!-- Creator: CorelDRAW -->
<svg xmlns="http://www.w3.org/2000/svg" xml:space="preserve" width="1.24269in" height="0.766465in" version="1.1" style="shape-rendering:geometricPrecision; text-rendering:geometricPrecision; image-rendering:optimizeQuality; fill-rule:evenodd; clip-rule:evenodd"
viewBox="0 0 122.27 75.41"
 xmlns:xlink="http://www.w3.org/1999/xlink"
 xmlns:xodm="http://www.corel.com/coreldraw/odm/2003">
 <defs>
  <style type="text/css">
   <![CDATA[
    .fil1 {fill:#040404}
    .fil0 {fill:#3A3A3A}
   ]]>
  </style>
 </defs>
 <g id="Layer_x0020_1">
  <metadata id="CorelCorpID_0Corel-Layer"/>
  <g id="_1810920128">
   <path class="fil0" d="M116.18 32.5c-0.53,-1.91 -0.88,-3.23 -2.25,-4.28 -1.13,-0.86 -2.89,-1.67 -4.77,-1.27 -1.16,0.99 -2.61,3.2 -2.71,4.85 4.14,-0.69 7.14,-1.7 7.79,3.15 1,-0.68 0.66,-0.55 1.5,-1.5 -0.91,3.28 -7.46,12.21 -5.65,13.87 2.57,1.59 4.27,-1.66 5.54,-2.81 1,-0.91 1.14,-1.37 2.08,-2.24 1.11,-1.02 1.38,-1.32 2.48,-2.43 -0.41,1.26 -0.04,0.45 -0.81,1.47 -0.55,0.72 -0.59,0.66 -1.05,1.41 -1.27,2.11 -2.64,3.38 -4.36,4.93 -1.33,1.2 -2.52,0.93 -4.21,1.44 -0.57,1.11 -0.67,3.07 -1.2,4.47 -0.98,-8.27 -1.73,-5.55 -2.91,-7.82 -0.79,-1.52 -0.08,-1.59 -1.47,-2.36 -1.57,-0.28 -1.9,0.48 -3.7,0.85l0.73 -0.55c0.14,-0.12 0.5,-0.4 0.62,-0.54l0.85 -1.7c5.32,-0.48 12.82,-3.27 9.86,-9.08 -2.16,-1.15 -5.66,-0.05 -8.5,0.34 -4.89,0.67 -4.59,0.41 -7.43,3.22 1.16,-4.24 6.4,-2.93 8.57,-4.27 2.63,-1.62 0.4,-4.63 6.1,-6.23 0.93,-3.43 1.46,-9.02 1.99,-12.73 0.53,-3.74 2.6,-10.48 -0.52,-12.55 -4.43,-1.5 -5.09,8.01 -6.11,12.83 -0.67,3.18 -2.27,12.67 -3.48,14.75 -3.34,0.48 -4.23,-4.17 -5.48,-8.31 -1.15,-3.8 -2.28,-7.42 -3.58,-11.21 -1.05,-3.07 -1.98,-9.09 -5.78,-7.75 -3.71,1.3 -0.81,7.78 0.06,11.11 1.05,4.02 1.97,7.74 3.24,11.68 2.53,7.85 2.76,8.01 0.74,15.75 -1.14,4.38 -4.3,5.15 0.97,15.97 2.3,4.72 1.24,6.42 0.43,10.84 -1.39,7.55 -2.89,10.92 13,9.11 11.31,-1.29 8.16,-1.62 9.14,-10.84 0.37,-3.44 2.92,-6.14 5,-14.05 1.35,-5.13 3.72,-18.78 -4.72,-17.55z"/>
   <path class="fil1" d="M16.19 45.69c-3.05,-3.27 -2.08,-2.91 -6.39,-2.17 -2.5,-1.21 -7.38,-4.4 -9.8,-3.55 0.98,1.51 1.11,0.95 2.68,2.42 0.41,3.78 0.33,3.83 3.37,6 3.17,2.27 0.31,3.14 5.7,3.98 2.74,0.44 1.49,2.07 6.77,2.81 6.13,0.85 2.11,0.26 6.77,-0.86 4.74,4.12 9.09,12.77 18.28,17.54 4.5,2.35 4,3.28 7.85,-0.25 2.44,0.54 5.28,1.11 4.43,-2.47 4.66,-2.11 2.48,-2.36 3.13,-5.06 0.12,-0.5 3.82,-6.39 -2.08,-9.93 0.76,-3.57 0.76,-5.78 -2.18,-8.04l-8.62 -4.61 2.97 -2.84c2.37,2.45 1.93,3.51 5.32,1.71 1.62,-0.86 4.11,-2.2 5.79,-2.27 2.24,2.82 3.3,4.85 5.53,7.66 2.18,-0.11 4.01,-0.64 5.08,-2.58l-3.95 0.85c-3.32,-2.44 -17.75,-24.16 -18.72,-28.3 2.9,-3.43 15.1,-6.69 15.89,-10.2 -2.12,-0.33 -1.38,0.06 -3.48,1.32 -1.08,0.66 -2.38,1.16 -3.51,1.75 -2.44,1.23 -4.62,2.6 -7.19,3.89 -4.2,2.11 -8.35,7.58 -14.11,8.06 -5.16,0.43 -10.79,-5.11 -17.07,-1.37 -2.16,1.28 -3.86,4.64 -6.39,2.94 -1.87,-1.26 -3.27,-4.38 -5.81,-5.08 0.7,3.04 4.57,4.08 5.45,7.14 1.14,4 -2.75,8.38 2.58,10.33 8.21,-1.1 0.45,-7.19 12.04,2.89 6.54,5.69 9.34,2.87 16.64,4.21 3.5,0.64 5.03,2.54 7.95,4.03 3.4,1.73 5.06,1.52 5.26,6.11 0.08,2.19 -1.51,4.57 -1.28,5.26 0.71,2.16 2.09,-0.42 2.73,-0.7 1.02,1.34 1.51,3.43 0.8,4.97 -2.9,-2.08 -2.28,-4.08 -2.91,-0.59 -0.47,2.63 2.46,1.4 1.94,5.31 -4.08,2.97 -6.28,-5.43 -11.42,-6.25 0.13,0.69 10.87,8.81 7.93,10.58l-3.54 -0.28c-0.12,0.12 -0.22,0.17 -0.32,0.38 -0.83,1.99 -2.68,1.84 -3.6,1.9 -1.24,-1.11 -0.44,-0.08 -1.21,-2.26 -2.89,3.98 -16.62,-13.65 -17.74,-14.76 -0.53,-0.5 -1.64,-1.25 -2.1,-1.73l-4.01 -6.11c-1.11,-2.11 -3.31,-2.09 -5.42,-1.78zm28.84 23.77c-0.05,-0.08 -0.19,0.04 -0.21,0.12 -0.01,0.02 -0.08,0.05 -0.08,0.05 0,0 0.89,0.81 0.3,-0.17zm3.1 -2.22l0.76 3.08c1.91,-1.62 1.03,-2.38 -0.76,-3.08zm-0.15 2.93c-0.05,0.03 0.15,0.12 0.14,0.21 -0.01,0.02 0.07,0.08 0.07,0.08 -0.02,-0.01 0.79,-0.91 -0.21,-0.29zm0.26 -3.69c-0.43,-0.72 -2.06,0.3 -0.75,0.15 0.02,0.01 1.37,0.83 0.75,-0.15zm-2.58 -7.92l-1.04 -2.33c-1.34,2.99 -1.38,0.85 -2,3.42 -0.66,2.65 0.59,0.45 -2.14,2.38l0.36 3.9c1.05,-1.22 -0.01,-0.64 1.04,-2.4 2.62,-0.32 2.61,1.46 5.18,2.6 -0.92,-2.15 -4.7,-3.52 -3.49,-6.36 0.94,-2.21 -0.2,-0.6 2.09,-1.21zm-4.22 10.76l1.93 -1.31 -1.75 -1.85 -0.18 3.16zm1.8 -0.29c0.06,0.06 0.24,-0.23 0.22,-0.14 -0.01,0.04 0.1,-0.04 0.08,-0.05 -0.01,0.02 -0.89,-0.81 -0.3,0.19zm11.44 -8.51c-0.03,-0.05 -0.18,0.07 -0.2,0.15 -0.01,0.02 -0.1,0.04 -0.1,0.04 0.03,-0.02 0.91,0.81 0.3,-0.19zm-0.45 -0.72c-0.03,-0.07 -0.19,0.04 -0.21,0.12 -0.01,0.04 -0.09,0.07 -0.09,0.07 0.03,-0.02 0.92,0.79 0.3,-0.19zm-2.81 -5.15c-0.36,2 -0.47,0.72 0.35,2.78 -1.79,-1.5 -2.55,-2.45 -4.95,-3.05 0.47,1.23 5.2,4.43 6.74,5.15l-2.14 -4.88zm-5.38 0.07c-0.05,0.03 0.15,0.12 0.13,0.21 -0.01,0.04 0.05,0.08 0.05,0.08 0,0 0.81,-0.88 -0.19,-0.29zm-0.73 0.44c-0.08,0.05 0.15,0.15 0.14,0.21 -0.01,0.04 0.05,0.1 0.05,0.1 -0.02,-0.03 0.79,-0.91 -0.18,-0.31zm5.54 -5.47c-3.7,4.07 0.73,-2.39 -2.62,1.59 1.45,1.86 1.71,1.24 2.7,3.3 1.61,-4.81 -0.82,1.03 -0.08,-4.89zm1.37 2.76c0.08,-0.05 -0.09,-0.29 -0.11,-0.2 -0.01,0.02 -0.07,-0.1 -0.07,-0.1 0.02,0.03 -0.79,0.91 0.18,0.31zm-32.82 1.39c0.47,-1.88 0.48,-1.79 2.09,-3.03l2.34 2.4c-1.82,0.84 -2.16,1.3 -4.42,0.63zm-7.07 -2.99c-2.47,-0.31 -2.55,0.03 -4.02,-1.84l2.51 -4.51 3.81 0.98c0.1,2.28 -0.61,4.17 -2.3,5.37zm5.05 2.44l-3.22 -1.21c0.85,-3.37 3.88,-8 6.83,-3.16 -0.8,0.95 -3.15,3.98 -3.61,4.37zm-13.47 -11.17c2.24,1.08 3.64,0.9 4.87,3.67l-1.79 1.3c-2.88,-1.11 -2.39,-2.09 -3.08,-4.97zm10.8 -8.92c-5.13,-3.47 0.81,-11.27 5.48,-13.03 3.18,-1.21 5.52,-1.15 8.62,0.2 13.02,5.64 5.1,-7.22 18.85,17.26 -2.44,5.25 -4.63,1.85 -7.63,1.77 -7.02,-0.19 -7.19,2.51 -16.56,-6.69 -1.18,-1.16 -2.67,-1.78 -3.08,-3.15 -0.59,-2.05 0.98,-2.64 -1.14,-4.11 -1.58,1.29 1.71,5.21 -4.54,7.75zm25.63 -12.3c1.49,-1.38 4.49,-2.85 6.31,-3.29 1.94,3.1 3.81,6.66 5.81,9.51 0.84,1.14 5.87,8.75 6.07,9.37 -1.22,1.24 -5.07,2.64 -6.83,3.23 -3.85,-6.1 -8.9,-11.91 -11.36,-18.82z"/>
  </g>
 </g>
</svg>
