<?xml version="1.0" encoding="UTF-8"?>
<!DOCTYPE svg PUBLIC "-//W3C//DTD SVG 1.1//EN" "http://www.w3.org/Graphics/SVG/1.1/DTD/svg11.dtd">
<!-- Creator: CorelDRAW -->
<svg xmlns="http://www.w3.org/2000/svg" xml:space="preserve" width="1.25437in" height="0.822654in" version="1.1" style="shape-rendering:geometricPrecision; text-rendering:geometricPrecision; image-rendering:optimizeQuality; fill-rule:evenodd; clip-rule:evenodd"
viewBox="0 0 106.56 69.88"
 xmlns:xlink="http://www.w3.org/1999/xlink"
 xmlns:xodm="http://www.corel.com/coreldraw/odm/2003">
 <defs>
  <style type="text/css">
   <![CDATA[
    .fil1 {fill:#040404}
    .fil0 {fill:#3A3A3A}
   ]]>
  </style>
 </defs>
 <g id="Layer_x0020_1">
  <metadata id="CorelCorpID_0Corel-Layer"/>
  <g id="_1188747216">
   <path class="fil0" d="M101.75 56.47c-2.73,2.77 -3.48,3.98 -6.7,4.28 -1.85,0.18 -5.07,-0.09 -6.64,-0.78 2.12,-0.77 2.65,-0.42 4.66,-2.61 4.65,4.71 9.24,-3.19 10.54,-8.13 0.63,-2.4 0.38,-4.86 0.29,-7.15 -0.11,-3.09 0.87,-4.44 1.8,-7.14l-0.49 0.26c-1.86,1.3 -2.16,2.32 -5.25,3.62 -4.48,1.89 -7.44,2.62 -10.51,7.17 -2.24,3.32 -0.97,2.47 -4.49,4.95 1.58,-1.73 1.86,-1.91 2.78,-3.94l-2.18 0.09c2.45,-1.77 2.35,-1.3 4.24,-4.06 1.05,-1.52 2.69,-2 4.26,-3.07 4.63,-3.16 4.71,-4.17 3.61,-8.44 3.07,3.17 0.74,4.34 0.3,7.14 2.7,-1.01 5.91,-2.67 8.04,-5.49 -1.07,-5.82 -3.1,-7.41 -8.45,-2.34l-2.02 -0.95c5.91,-2.24 6.25,-7.2 7.83,-11.88 0.85,-2.53 3.81,-11.36 3.08,-13.29 -0.57,-1.51 -3.56,-3.63 -5.4,1.24l-4.86 13.28c-0.63,1.85 -1.42,5.71 -2.78,6.86 -0.76,-1.04 -0.31,-2.22 -0.31,-5.39l0.04 -16.96c-0.06,-2.01 -1.51,-4.54 -3.76,-3.52 -2.96,1.34 -2.36,7.08 -2.37,11.14l-0.53 11.06c-0.03,0.56 -0.22,5.83 -2.2,3.19 -0.91,-1.22 -3.57,-14.03 -4.04,-16.95 -0.23,-1.42 -0.32,-4.31 -1.09,-5.67 -1.29,-2.28 -3.77,-2.36 -5.02,0.23 -1.92,3.99 3.5,24.22 3.47,28.05 -0.03,3.97 -0.78,7.59 -0.37,11.31 1.02,9.28 3.59,9.63 3.91,19.41 0.03,1.06 -0.12,1.87 -0.09,2.95 0.07,2.06 0.43,3.65 3.21,4.41 0.72,0.2 2.04,0.47 2.72,0.5 1.27,0.06 1.78,-0.09 2.95,-0.02 2.41,0.15 8.48,-0.73 11.34,-2.37 2.82,-1.62 1.52,-3.1 1,-7.94 -0.15,-1.45 -0.07,-1.69 -0.48,-3.07z"/>
   <path class="fil1" d="M13.98 40.13c-2.63,-2.83 -1.8,-2.51 -5.52,-1.87 -2.17,-1.04 -6.37,-3.8 -8.46,-3.07 0.85,1.3 0.96,0.82 2.31,2.09 0.35,3.26 0.28,3.31 2.91,5.19 2.75,1.96 0.27,2.71 4.92,3.44 2.37,0.38 1.29,1.79 5.84,2.43 5.29,0.73 1.82,0.22 5.84,-0.74 4.09,3.56 7.85,11.02 15.78,15.14 3.88,2.03 3.45,2.83 6.78,-0.22 2.11,0.47 4.56,0.96 3.82,-2.13 4.02,-1.82 2.15,-2.05 2.7,-4.37 0.1,-0.43 3.3,-5.52 -1.8,-8.57 0.66,-3.08 0.66,-4.99 -1.88,-6.95l-7.44 -3.98 2.56 -2.45c2.05,2.11 1.67,3.03 4.59,1.48 1.4,-0.74 3.55,-1.9 5,-1.97 1.93,2.43 2.85,4.19 4.77,6.62 1.88,-0.09 3.46,-0.55 4.39,-2.23l-3.41 0.73c-2.87,-2.11 -15.33,-20.86 -16.17,-24.44 2.5,-2.96 13.03,-5.78 13.73,-8.81 -1.83,-0.28 -1.19,0.05 -3,1.14 -0.93,0.57 -2.05,1 -3.04,1.51 -2.11,1.06 -3.99,2.24 -6.21,3.36 -3.63,1.82 -7.22,6.54 -12.18,6.97 -4.45,0.37 -9.31,-4.41 -14.74,-1.18 -1.86,1.1 -3.33,4.01 -5.52,2.54 -1.61,-1.09 -2.82,-3.78 -5.02,-4.39 0.6,2.62 3.95,3.52 4.7,6.16 0.98,3.45 -2.37,7.23 2.23,8.93 7.09,-0.95 0.39,-6.22 10.39,2.49 5.65,4.91 8.06,2.48 14.37,3.63 3.02,0.55 4.34,2.19 6.86,3.48 2.94,1.5 4.38,1.31 4.54,5.27 0.07,1.89 -1.3,3.95 -1.1,4.54 0.61,1.87 1.8,-0.36 2.36,-0.6 0.88,1.16 1.3,2.96 0.69,4.29 -2.5,-1.8 -1.97,-3.52 -2.51,-0.51 -0.41,2.27 2.12,1.21 1.67,4.58 -3.53,2.56 -5.42,-4.69 -9.86,-5.4 0.11,0.6 9.39,7.61 6.85,9.14l-3.06 -0.24c-0.1,0.1 -0.19,0.15 -0.28,0.33 -0.72,1.73 -2.31,1.59 -3.11,1.64 -1.07,-0.96 -0.38,-0.07 -1.04,-1.95 -2.49,3.44 -14.35,-11.79 -15.32,-12.74 -0.46,-0.43 -1.42,-1.08 -1.81,-1.49l-3.46 -5.28c-0.96,-1.82 -2.86,-1.8 -4.68,-1.54l-0.02 0.01zm24.9 20.53c-0.04,-0.07 -0.16,0.03 -0.18,0.1 -0.01,0.02 -0.07,0.04 -0.07,0.04 0,0 0.77,0.7 0.26,-0.15l-0.01 0zm2.68 -1.92l0.66 2.66c1.65,-1.4 0.89,-2.05 -0.66,-2.66zm-0.13 2.53c-0.04,0.03 0.13,0.1 0.12,0.18 -0.01,0.02 0.06,0.07 0.06,0.07 -0.02,-0.01 0.69,-0.79 -0.18,-0.25l0 0zm0.22 -3.19c-0.37,-0.62 -1.78,0.26 -0.65,0.13 0.02,0.01 1.18,0.72 0.65,-0.13zm-2.23 -6.84l-0.9 -2.01c-1.16,2.58 -1.19,0.73 -1.73,2.95 -0.57,2.29 0.51,0.39 -1.85,2.05l0.31 3.37c0.91,-1.05 -0.01,-0.55 0.9,-2.08 2.26,-0.28 2.25,1.26 4.47,2.24 -0.79,-1.86 -4.06,-3.04 -3.01,-5.49 0.81,-1.91 -0.17,-0.52 1.8,-1.04l0 0.01zm-3.64 9.3l1.67 -1.13 -1.51 -1.6 -0.16 2.73zm1.55 -0.25c0.05,0.05 0.21,-0.2 0.19,-0.12 -0.01,0.03 0.09,-0.03 0.07,-0.04 -0.01,0.02 -0.77,-0.7 -0.26,0.16zm9.88 -7.35c-0.03,-0.04 -0.16,0.06 -0.17,0.13 -0.01,0.02 -0.09,0.03 -0.09,0.03 0.03,-0.02 0.79,0.7 0.26,-0.16zm-0.39 -0.62c-0.03,-0.06 -0.16,0.03 -0.18,0.1 -0.01,0.03 -0.08,0.06 -0.08,0.06 0.03,-0.02 0.79,0.68 0.26,-0.16l0 -0zm-2.43 -4.45c-0.31,1.73 -0.41,0.62 0.3,2.4 -1.55,-1.29 -2.2,-2.12 -4.27,-2.63 0.41,1.06 4.49,3.82 5.82,4.45l-1.85 -4.21zm-4.64 0.06c-0.04,0.03 0.13,0.1 0.11,0.18 -0.01,0.03 0.04,0.07 0.04,0.07 0,0 0.7,-0.76 -0.16,-0.25l0.01 0zm-0.63 0.38c-0.07,0.04 0.13,0.13 0.12,0.18 -0.01,0.03 0.04,0.09 0.04,0.09 -0.02,-0.03 0.68,-0.79 -0.16,-0.27l-0.01 0zm4.78 -4.72c-3.19,3.51 0.63,-2.06 -2.26,1.37 1.25,1.61 1.48,1.07 2.33,2.85 1.4,-4.15 -0.71,0.89 -0.07,-4.22l-0 0zm1.18 2.38c0.07,-0.04 -0.08,-0.25 -0.09,-0.17 -0.01,0.02 -0.06,-0.09 -0.06,-0.09 0.02,0.03 -0.69,0.79 0.16,0.27l0 -0.01zm-28.33 1.2c0.41,-1.62 0.41,-1.55 1.8,-2.62l2.02 2.07c-1.57,0.73 -1.86,1.12 -3.82,0.54l-0 0zm-6.1 -2.58c-2.13,-0.27 -2.2,0.03 -3.47,-1.59l2.17 -3.89 3.29 0.85c0.09,1.97 -0.53,3.61 -1.99,4.64zm4.36 2.11l-2.78 -1.04c0.73,-2.91 3.35,-6.91 5.9,-2.74 -0.69,0.82 -2.72,3.44 -3.12,3.78l-0.01 0zm-11.64 -9.64c1.93,0.93 3.14,0.78 4.2,3.17l-1.55 1.12c-2.49,-0.96 -2.06,-1.8 -2.66,-4.29zm9.32 -7.71c-4.43,-3 0.7,-9.74 4.73,-11.25 2.75,-1.04 4.77,-0.99 7.44,0.17 11.24,4.87 4.4,-6.23 16.28,14.9 -2.11,4.53 -4,1.6 -6.59,1.53 -6.07,-0.16 -6.21,2.17 -14.3,-5.78 -1.02,-1 -2.3,-1.54 -2.66,-2.72 -0.51,-1.77 0.85,-2.28 -0.98,-3.55 -1.36,1.11 1.48,4.5 -3.92,6.69l-0.01 -0zm22.13 -10.62c1.29,-1.19 3.88,-2.46 5.45,-2.84 1.67,2.68 3.29,5.75 5.02,8.21 0.73,0.98 5.07,7.56 5.24,8.09 -1.05,1.07 -4.38,2.29 -5.9,2.79 -3.32,-5.27 -7.69,-10.29 -9.81,-16.25z"/>
  </g>
 </g>
</svg>
