<?xml version="1.0" encoding="UTF-8"?>
<!DOCTYPE svg PUBLIC "-//W3C//DTD SVG 1.1//EN" "http://www.w3.org/Graphics/SVG/1.1/DTD/svg11.dtd">
<!-- Creator: CorelDRAW -->
<svg xmlns="http://www.w3.org/2000/svg" xml:space="preserve" width="0.372626in" height="0.810614in" version="1.1" style="shape-rendering:geometricPrecision; text-rendering:geometricPrecision; image-rendering:optimizeQuality; fill-rule:evenodd; clip-rule:evenodd"
viewBox="0 0 13.62 29.62"
 xmlns:xlink="http://www.w3.org/1999/xlink"
 xmlns:xodm="http://www.corel.com/coreldraw/odm/2003">
 <defs>
  <style type="text/css">
   <![CDATA[
    .fil0 {fill:#3A3A3A}
   ]]>
  </style>
 </defs>
 <g id="Layer_x0020_1">
  <metadata id="CorelCorpID_0Corel-Layer"/>
  <path class="fil0" d="M8.05 10.92c-1.25,-1.06 -2.69,-0.82 -3.33,0.73 -1.19,-0.52 -2.47,0.01 -2.56,1.46 -0.73,0.12 -1.19,-0.11 -1.8,0.81 -0.62,0.95 -0.29,1.4 -0.19,2.11 0.3,2.13 0.16,2.07 0.78,4.07 0.58,1.89 1.41,3.42 3.93,3.24 1.86,-0.14 -0.01,-0.8 3.29,0.47l-0.57 0.06c-1.69,-0.15 -0.42,-0.64 -2.61,0.09 -2.5,0.83 -2.39,-0.86 -2.64,3.6 -0.09,1.66 1.22,1.11 3.45,1.52 1.52,0.28 3.23,1.05 4.31,0.1 0.74,-0.65 0.41,-1.46 0.39,-2.1 -0.03,-0.84 -0.36,-3.53 0.04,-4.23 0.38,-0.67 1.26,-1.77 1.74,-2.5 1.6,-2.43 1.7,-3.26 0.66,-6.47 -0.37,-1.15 -0.43,-1.2 -1.64,-1.39 -0.52,-1.73 -0.34,-3.95 -0.49,-5.93 -0.07,-0.87 -0.75,-5.26 -1.23,-5.91 -0.97,-1.32 -2.15,-0.41 -1.93,1.13l0.38 6.06c0.05,0.89 0.36,2.19 0.03,3.1z"/>
 </g>
</svg>
