<?xml version="1.0" encoding="UTF-8"?>
<!DOCTYPE svg PUBLIC "-//W3C//DTD SVG 1.1//EN" "http://www.w3.org/Graphics/SVG/1.1/DTD/svg11.dtd">
<!-- Creator: CorelDRAW -->
<svg xmlns="http://www.w3.org/2000/svg" xml:space="preserve" width="0.332339in" height="0.705366in" version="1.1" style="shape-rendering:geometricPrecision; text-rendering:geometricPrecision; image-rendering:optimizeQuality; fill-rule:evenodd; clip-rule:evenodd"
viewBox="0 0 9.85 20.91"
 xmlns:xlink="http://www.w3.org/1999/xlink"
 xmlns:xodm="http://www.corel.com/coreldraw/odm/2003">
 <defs>
  <style type="text/css">
   <![CDATA[
    .fil0 {fill:#3A3A3A}
   ]]>
  </style>
 </defs>
 <g id="Layer_x0020_1">
  <metadata id="CorelCorpID_0Corel-Layer"/>
  <path class="fil0" d="M3.08 8.16c-0.26,-0.95 -0.51,-3.61 -0.65,-4.64 -0.15,-1.04 -0.72,-2.91 0.15,-3.48 1.23,-0.42 1.41,2.22 1.69,3.56 0.19,0.88 0.63,3.51 0.96,4.09 0.93,0.13 1.17,-1.16 1.52,-2.3 0.32,-1.05 0.63,-2.06 0.99,-3.11 0.29,-0.85 0.55,-2.52 1.6,-2.15 1.03,0.36 0.22,2.16 -0.02,3.08 -0.29,1.11 -0.55,2.15 -0.9,3.24 -0.7,2.18 -0.77,2.22 -0.21,4.37 0.32,1.21 1.19,1.43 -0.27,4.43 -0.64,1.31 -0.34,1.78 -0.12,3.01 0.39,2.09 0.8,3.03 -3.61,2.53 -3.14,-0.36 -2.26,-0.45 -2.53,-3 -0.1,-0.95 -0.81,-1.7 -1.39,-3.9 -0.95,-3.61 0.57,-4.73 1.34,-4.34 0.14,-1.34 0.76,-1.37 1.43,-1.37z"/>
 </g>
</svg>
